<?xml version="1.0" encoding="UTF-8"?>
<svg xmlns="http://www.w3.org/2000/svg" viewBox="0 0 32 32">
  <defs>
    <style>
      .cls-1 {
        fill: #f7cf00;
      }
    </style>
  </defs>
  <g>    
    <path class="cls-1" d="M9.81,26.84H4.65v-6.19c0-.28-.23-.52-.52-.52H1.33l3.27-7.01c.03-.07,.05-.14,.05-.22,0-3.42,2.78-6.19,6.19-6.19h2.58v-1.03h-2.58c-3.95,0-7.16,3.18-7.22,7.11L.05,20.43c-.07,.16-.06,.35,.03,.5,.09,.15,.26,.24,.44,.24H3.61v6.19c0,.28,.23,.52,.52,.52h5.16v4.13h1.03v-4.65c0-.28-.23-.52-.52-.52Z"/>
    <path class="cls-1" d="M13.42,18.06c0-1.14-.93-2.06-2.06-2.06s-2.06,.93-2.06,2.06,.93,2.06,2.06,2.06,2.06-.93,2.06-2.06Zm-3.1,0c0-.57,.46-1.03,1.03-1.03s1.03,.46,1.03,1.03-.46,1.03-1.03,1.03-1.03-.46-1.03-1.03Z"/>
    <path class="cls-1" d="M15.48,10.32v2.06c0,.28,.23,.52,.52,.52h2.06c.29,0,.52-.23,.52-.52v-2.06c0-.28-.23-.52-.52-.52h-2.06c-.29,0-.52,.23-.52,.52Zm1.03,.52h1.03v1.03h-1.03v-1.03Z"/>
    <path class="cls-1" d="M14.97,7.74h2.06c.29,0,.52-.23,.52-.52v-2.06c0-.28-.23-.52-.52-.52h-2.06c-.29,0-.52,.23-.52,.52v2.06c0,.28,.23,.52,.52,.52Zm.52-2.06h1.03v1.03h-1.03v-1.03Z"/>
    <path class="cls-1" d="M18.06,13.94c-.29,0-.52,.23-.52,.52v2.06c0,.28,.23,.52,.52,.52h2.06c.29,0,.52-.23,.52-.52v-2.06c0-.28-.23-.52-.52-.52h-2.06Zm1.55,2.06h-1.03v-1.03h1.03v1.03Z"/>
    <path class="cls-1" d="M19.1,8.77h3.1c.29,0,.52-.23,.52-.52v-3.1c0-.28-.23-.52-.52-.52h-3.1c-.29,0-.52,.23-.52,.52v3.1c0,.28,.23,.52,.52,.52Zm.52-3.1h2.06v2.06h-2.06v-2.06Z"/>
    <path class="cls-1" d="M26.32,9.81h-4.13c-.29,0-.52,.23-.52,.52v4.13c0,.28,.23,.52,.52,.52h4.13c.29,0,.52-.23,.52-.52v-4.13c0-.28-.23-.52-.52-.52Zm-.52,4.13h-3.1v-3.1h3.1v3.1Z"/>
    <path class="cls-1" d="M23.74,5.16v2.06c0,.28,.23,.52,.52,.52h2.06c.29,0,.52-.23,.52-.52v-2.06c0-.28-.23-.52-.52-.52h-2.06c-.29,0-.52,.23-.52,.52Zm1.03,.52h1.03v1.03h-1.03v-1.03Z"/>
    <path class="cls-1" d="M19.1,3.61h2.06c.29,0,.52-.23,.52-.52V1.03c0-.28-.23-.52-.52-.52h-2.06c-.29,0-.52,.23-.52,.52V3.1c0,.28,.23,.52,.52,.52Zm.52-2.06h1.03v1.03h-1.03V1.55Z"/>
    <path class="cls-1" d="M11.35,8.77c-.29,0-.52,.23-.52,.52v2.06c0,.28,.23,.52,.52,.52h2.06c.29,0,.52-.23,.52-.52v-2.06c0-.28-.23-.52-.52-.52h-2.06Zm1.55,2.06h-1.03v-1.03h1.03v1.03Z"/>
    <path class="cls-1" d="M28.39,11.87h2.06c.29,0,.52-.23,.52-.52v-2.06c0-.28-.23-.52-.52-.52h-2.06c-.29,0-.52,.23-.52,.52v2.06c0,.28,.23,.52,.52,.52Zm.52-2.06h1.03v1.03h-1.03v-1.03Z"/>
    <path class="cls-1" d="M31.48,3.61h-3.1c-.29,0-.52,.23-.52,.52v3.1c0,.28,.23,.52,.52,.52h3.1c.29,0,.52-.23,.52-.52v-3.1c0-.28-.23-.52-.52-.52Zm-.52,3.1h-2.06v-2.06h2.06v2.06Z"/>
    <path class="cls-1" d="M23.23,3.1h2.06c.29,0,.52-.23,.52-.52V.52c0-.28-.23-.52-.52-.52h-2.06c-.29,0-.52,.23-.52,.52V2.58c0,.28,.23,.52,.52,.52Zm.52-2.06h1.03v1.03h-1.03V1.03Z"/>
    <path class="cls-1" d="M20.13,25.81c-.85,0-1.55,.69-1.55,1.55s.69,1.55,1.55,1.55,1.55-.69,1.55-1.55-.69-1.55-1.55-1.55Zm0,2.06c-.28,0-.52-.23-.52-.52s.23-.52,.52-.52,.52,.23,.52,.52-.23,.52-.52,.52Z"/>
    <path class="cls-1" d="M30.81,26.69l.52-.52-.73-.73-.52,.52s-.1-.04-.15-.06v-1.13h-1.03v1.13c-.05,.02-.1,.04-.15,.06l-.52-.52c-.06-.06-.13-.1-.2-.12l-4.65-1.55c-.19-.06-.39-.01-.53,.12l-.57,.57c-.47-.35-1.03-.59-1.64-.68v-1.07c0-.11-.03-.22-.1-.3l-4.13-5.68h0c-.09-.12-.24-.21-.41-.21h-.82l.67-.67c.1-.1,.15-.23,.15-.36s-.05-.27-.15-.36l-1.55-1.55c-.2-.2-.53-.2-.73,0l-.67,.67v-.82c0-.28-.23-.52-.52-.52h-2.06c-.29,0-.52,.23-.52,.52v.82l-.67-.67c-.2-.2-.53-.2-.73,0l-1.55,1.55c-.1,.1-.15,.23-.15,.36s.05,.27,.15,.36l.67,.67h-.82c-.29,0-.52,.23-.52,.52v2.06c0,.28,.23,.52,.52,.52h.82l-.67,.67c-.1,.1-.15,.23-.15,.36s.05,.27,.15,.36l1.55,1.55c.2,.2,.53,.2,.73,0l.67-.67v.82c0,.15,.07,.29,.17,.38h0s5.16,4.65,5.16,4.65c.09,.09,.22,.13,.35,.13h1.07c.09,.61,.33,1.17,.68,1.64l-.57,.57,.73,.73,.57-.57c.47,.35,1.03,.59,1.64,.68v1.07h1.03v-1.07c.61-.09,1.17-.33,1.64-.68l.57,.57c.1,.1,.23,.15,.36,.15,.05,0,.11,0,.16-.03l4.65-1.55c.08-.03,.15-.07,.2-.12l.52-.52s.1,.04,.15,.06v1.13h1.03v-1.13c.05-.02,.1-.04,.15-.06l.52,.52,.73-.73-.52-.52s.04-.1,.06-.15h1.13v-1.03h-1.13c-.02-.05-.04-.1-.06-.15Zm-.88,.66c0,.28-.23,.52-.52,.52s-.52-.23-.52-.52,.23-.52,.52-.52,.52,.23,.52,.52Zm-9.81,2.58c-1.42,0-2.58-1.16-2.58-2.58s1.16-2.58,2.58-2.58,2.58,1.16,2.58,2.58-1.16,2.58-2.58,2.58Zm-10.19-9.13c-.2-.1-.44-.07-.6,.09l-.56,.56-.82-.82,.56-.56c.16-.16,.2-.4,.09-.6-.1-.2-.17-.37-.22-.53-.07-.22-.27-.37-.49-.37h-.67v-1.03h.67c.23,0,.43-.15,.49-.37,.05-.18,.13-.36,.22-.54,.1-.2,.07-.44-.09-.6l-.56-.56,.82-.82,.56,.56c.16,.16,.4,.2,.6,.09,.17-.09,.36-.16,.54-.22,.22-.07,.37-.27,.37-.49v-.67h1.03v.67c0,.23,.15,.43,.37,.49,.16,.05,.34,.12,.53,.22,.2,.1,.44,.07,.6-.09l.56-.56,.82,.82-.56,.56c-.16,.16-.2,.4-.09,.6,.1,.2,.17,.37,.22,.53,.07,.22,.27,.37,.49,.37h.67v1.03h-.67c-.23,0-.43,.15-.49,.37-.05,.18-.13,.36-.22,.54-.1,.2-.07,.44,.09,.6l.56,.56-.82,.82-.56-.56c-.16-.16-.4-.2-.6-.09-.17,.09-.36,.16-.54,.22-.22,.07-.37,.27-.37,.49v.67h-1.03v-.67c0-.23-.15-.43-.37-.49-.16-.05-.33-.12-.53-.22Zm1.73,2.42h.72c.29,0,.52-.23,.52-.52v-.82l.67,.67c.2,.2,.53,.2,.73,0l1.55-1.55c.1-.1,.15-.23,.15-.36s-.05-.27-.15-.36l-.67-.67h.82c.29,0,.52-.23,.52-.52v-.48l3.1,4.26v.91c-.61,.09-1.17,.33-1.64,.68l-.57-.57-.73,.73,.57,.57c-.35,.47-.59,1.03-.68,1.64h-.88l-4.01-3.61Zm11.7,6.64l-.35-.35c.35-.47,.59-1.03,.68-1.64h1.07v-1.03h-1.07c-.09-.61-.33-1.17-.68-1.64l.35-.35,4.23,1.41,.43,.43s-.04,.1-.06,.15h-1.13v1.03h1.13c.02,.05,.04,.1,.06,.15l-.43,.43-4.23,1.41Z"/>
   </g>
</svg>