<?xml version="1.0" encoding="UTF-8"?>
<svg id="Layer_2" data-name="Layer 2" xmlns="http://www.w3.org/2000/svg" viewBox="0 0 1255.01 243.72">
  <defs>
    <style>
      .cls-1 {
        fill: #896eb1;
      }

      .cls-2 {
        fill: none;
        stroke: #896eb1;
        stroke-miterlimit: 10;
        stroke-width: 6px;
      }

      .cls-3 {
        fill: #f7cf00;
      }
    </style>
  </defs>
  <g id="Layer_1-2" data-name="Layer 1">
    <path class="cls-3" d="M0,134.72c15.45-14.56,43.84-37.32,85.32-50.07,8.26-2.54,25.92-7.4,48.7-8.89,68.65-4.46,124.76,25.67,161.67,45.5,10.93,5.87,4.38,2.93,61.76,36.89,43.22,25.57,64.82,38.36,66.78,39.09,56.34,20.96,87.68-12.59,214.23-13.69,12.7-.11,19.06-.17,27.39,.44,65.46,4.77,115.76,34.81,148.15,59.73H0v-109Z"/>
    <path class="cls-2" d="M245.49,240.5c20.67-23.32,64.77-66.09,132.27-84.61,24.27-6.66,48.87-13.41,80.71-9.45,27.86,3.47,60.52,15.05,89.36,16.07,8.24,.29,25.39,.1,35.57-.61,3.64-.26,8.07-.57,13.52-1.21,0,0,3.67-.43,7.43-.99,38.68-5.77,73.33-20.65,73.33-20.65,16.39-7.04,24.58-10.56,32.94-17.93,6.34-5.58,18.2-15.97,22.39-33.43,.47-1.98,7.46-33.58-15.02-54.11-16.67-15.22-37.75-13.25-39.75-13.03-5.21,.57-20.55,3.1-31.8,16.34-13.24,15.58-11.32,34.82-10.6,39.9,4.7,33.18,41.72,50.72,53.23,56.17,36.16,17.14,72.11,13.5,90.77,10.38,118.89-19.87,138.94-121.14,256.2-137.82,8.97-1.28,43.43-6.21,86.58,2.65,33.13,6.8,82.72,27.47,130.41,69.79"/>
    <path class="cls-1" d="M243.46,238.32c-1.73,1.8-3.46,3.6-5.19,5.4h8.34c.41-.44,.83-.88,1.24-1.31"/>
  </g>
</svg>